<svg width="40" height="84" viewBox="0 0 40 84" fill="none" xmlns="http://www.w3.org/2000/svg">
<path d="M38.6437 13.6199C38.8 13.537 38.9387 13.4646 38.9937 13.4364C39.2055 13.3303 39.3926 13.2393 39.489 13.1857C39.7942 13.0163 39.8837 12.9725 39.9221 12.8516C39.9544 12.7506 39.8996 12.646 39.7839 12.5921C39.5929 12.5034 38.9881 12.8568 38.9859 12.8404C38.9705 12.7247 38.9064 12.6357 38.7584 12.6335C38.5845 12.631 38.3639 12.6983 38.0437 12.8071C37.7512 12.9067 37.4582 12.9979 37.3934 13.0153C37.557 12.8203 37.6045 12.7462 37.6045 12.7462C37.6045 12.7462 37.76 12.5679 37.6783 12.4559C37.6563 12.4256 37.5998 12.4075 37.5355 12.4302C37.3963 12.4794 37.1429 12.699 36.7134 13.0977C36.6596 13.1478 36.6357 13.1884 36.5527 13.2449C36.3906 13.2877 36.0902 13.3149 35.9335 13.2706C35.808 13.2354 35.7253 13.1892 35.6691 13.1442C35.6762 13.1344 35.8476 12.756 36.1066 12.5677C36.2722 12.4471 36.7323 12.0506 36.7731 12.0115C36.9321 11.8459 36.9069 11.7163 36.8939 11.627C36.878 11.5218 36.8198 11.4252 36.7384 11.3682C36.461 11.1762 35.9816 11.5546 35.9276 11.5984C35.8175 11.6877 35.3169 12.113 35.1589 12.2502C35.0456 12.3488 34.7191 12.487 34.5031 12.5787L34.3757 12.633C34.1057 12.7497 33.7657 12.9243 33.5148 13.14C33.3433 13.287 33.1362 13.6659 33.0716 13.808C32.9305 13.9256 32.2684 14.4671 31.4693 14.9494C30.8647 15.3146 30.2202 15.7125 29.6616 16.0574C29.2456 16.3142 28.8777 16.5414 28.6182 16.6985C28.5688 16.7249 27.3936 17.3478 26.4226 18.1212C26.1264 18.3572 25.8392 18.592 25.5643 18.8166C25.3354 19.0037 25.1221 19.1768 24.9167 19.3414C24.3429 19.8127 23.0471 20.6409 22.9035 20.7431C22.712 20.8635 22.5127 20.9867 22.284 21.1254C21.6718 21.4974 20.3782 22.1725 20.0184 22.3464C19.8768 22.4149 19.6251 22.5579 19.3446 22.7331C19.3355 22.7382 19.3248 22.7436 19.3157 22.7487L19.3089 22.7531C19.2355 22.6754 19.1636 22.5665 19.1533 22.5015C19.0985 22.1576 19.5767 22.1162 20.0857 21.9883C20.4251 21.903 20.701 21.7357 20.6991 21.5273C20.6971 21.3336 20.5827 21.3629 20.5467 21.2228C20.4626 20.8938 20.8903 20.8649 20.9478 20.7128C20.9676 20.66 20.9588 20.5521 20.8243 20.5071C20.6898 20.4621 20.6228 20.4709 20.4364 20.5247C20.3381 20.5531 20.2659 20.3719 20.3826 20.2464C20.4992 20.1207 20.5526 20.0813 20.5147 19.9448C20.4618 19.7555 20.3466 19.7262 20.2747 19.7712C20.2031 19.8159 20.1441 19.9409 20.0008 19.923C19.8575 19.9052 19.7931 19.8169 19.4321 19.8159C19.2189 19.8154 19.0491 20.0033 18.84 19.825C18.7145 19.7181 18.547 19.3769 18.1671 19.2685C17.8771 19.1864 17.7369 19.0269 17.7369 19.0269C17.7369 19.0269 18.0925 18.9139 18.2031 18.8024C18.4103 18.5937 18.3944 18.5375 18.4303 18.3929C18.4457 18.332 18.503 17.8707 18.2481 17.9055C18.1838 17.914 17.961 18.1295 17.8174 18.1386C17.6738 18.1476 17.652 18.1019 17.6738 18.0224C17.7215 17.8492 17.6706 17.7504 17.5501 17.6628C17.3847 17.5425 16.9332 17.6531 16.5465 17.692C16.1635 17.7306 15.8683 17.6934 15.5107 17.9219C15.2025 18.1185 14.9274 18.503 14.9274 18.503C14.9274 18.503 14.6539 18.5216 14.4842 18.7693C14.3988 18.8943 14.3976 19.0024 14.3976 19.0024C14.3976 19.0024 14.1418 19.0125 14.0217 19.2331C13.9557 19.3541 13.9586 19.372 13.9586 19.372C13.9586 19.372 13.4687 19.5058 13.2997 19.8081C13.1158 20.1371 12.9883 20.4602 13.1517 20.7815C13.2877 21.0494 13.3552 21.0878 13.3552 21.0878C13.3552 21.0878 13.2432 21.3495 13.309 21.6163C13.3828 21.9162 13.5166 22.0138 13.5367 22.0414C13.5171 22.1109 13.3982 22.4887 13.5423 22.9273C13.7649 23.605 14.108 23.6045 14.108 23.6045C14.108 23.6045 14.1604 24.4165 14.1975 24.9082C14.2345 25.3995 14.2426 25.7451 14.2426 25.7451C14.2357 25.7424 13.3606 26.1908 13.3606 26.1908C13.3606 26.1908 13.2449 25.9337 13.1571 25.7928C12.822 25.2547 12.3553 24.7993 12.1592 24.5295C11.9625 24.26 11.6999 23.9372 11.5355 23.8102C11.4978 23.7689 11.4318 23.7112 11.3156 23.6331C11.0319 23.4436 10.8441 23.0246 10.8441 23.0246L12.7675 22.9165L13.0539 22.0879L12.7168 21.811L10.9991 21.2599C11.2931 19.3128 14.1787 0.842339 14.1787 0.842339L13.8859 -7.62939e-06L13.8837 0.00562286L13.8767 0.0114899L13.8769 0.0153961L13.2728 0.820824L9.43403 21.2519L7.30396 21.8902L7.35116 22.7208L7.64197 22.9334L7.64955 22.9407L8.40629 22.9666C8.3383 23.0048 8.2412 23.0723 8.22873 23.1922C8.21625 23.312 8.20696 23.5402 8.29036 23.6018C8.37376 23.6637 8.40629 23.66 8.40629 23.66C8.40629 23.66 8.2977 23.8195 8.35933 23.99C8.42097 24.1605 8.50437 24.2221 8.50437 24.2221C8.50437 24.2221 8.40996 24.3273 8.46793 24.5012C8.52614 24.6753 8.59853 24.7188 8.59853 24.7188C8.59853 24.7188 8.51146 24.9727 8.61664 25.1033C8.72181 25.2337 8.91772 25.2919 8.91772 25.2919L8.87051 25.7632L8.6203 25.8141L8.56185 26.4918L8.86464 26.6188L10.057 26.709L10.1203 25.997C10.1203 25.997 10.011 25.9234 9.99144 25.8853C9.97163 25.8466 9.97065 25.7745 9.97774 25.7087C10.033 25.6964 10.1333 25.6754 10.2262 25.6637C10.293 25.6554 10.3275 25.6693 10.3522 25.7356C10.4063 25.9435 10.4358 26.4307 10.4769 26.8039C10.5278 27.2645 10.6357 27.6984 10.7543 28.1205C10.7609 28.1438 10.9632 28.6946 11.2665 28.9538C11.184 29.0631 11.0659 29.2277 10.9771 29.3835C10.5312 30.1667 10.7509 30.84 10.9431 31.2512C11.0055 31.4014 11.0776 31.5496 11.1554 31.6988C11.0136 32.2481 10.7619 33.3475 10.6826 33.7415C10.5153 34.5743 10.565 35.4644 10.6557 36.147C10.678 36.4063 10.7183 36.6694 10.7844 36.9047C10.8242 37.0958 10.858 37.2295 10.871 37.2787C10.8793 37.5238 10.9698 40.02 11.3132 41.6289C11.9403 44.5695 13.2045 47.0919 14.5431 49.7623C16.1454 52.9585 17.8022 56.2633 18.5431 60.6335C19.0995 63.9178 17.9566 68.6542 17.9448 68.7014L17.8954 68.9029L18.2342 68.9049C18.2224 68.9066 18.2121 68.9085 18.2004 68.9102C18.2004 68.9102 23.9582 68.9415 29.3287 68.9704L37.8928 69.021H37.8938C37.9014 69.021 37.908 69.0176 37.9153 69.0166C38.1543 69.0178 38.3172 69.0188 38.3852 69.0191C38.3852 69.0191 36.7125 64.799 37.2559 63.4995C37.4716 62.9832 39.5279 63.0055 39.1321 62.2788C38.6955 61.4776 34.7565 56.6277 33.2602 53.7659C33.2183 53.6856 29.5758 46.3618 26.8325 43.149C25.8561 42.0048 23.4673 38.497 22.7269 37.0444C22.3865 36.5139 22.6753 36.4202 22.9006 36.3376C23.1114 36.26 24.1775 35.6992 24.271 35.4534C24.3644 35.2081 24.076 34.704 24.0486 34.4481C23.9863 33.8589 24.711 33.6266 25.0994 33.9695C25.6397 34.4462 26.4108 35.221 27.5134 35.5461C28.4636 35.8259 30.8278 36.1103 32.3948 35.741C33.1362 35.5661 33.879 35.1063 34.0455 34.9579C34.4251 34.6206 34.5034 34.283 34.2471 33.9856C34.1844 33.9132 33.2827 34.4288 32.9011 34.1204C32.2747 33.6141 32.8691 33.1137 32.9253 33.078C33.347 32.8133 33.9377 32.8341 34.6783 32.47C35.4734 32.0784 35.8305 31.6095 35.9332 31.4576C36.2507 30.9878 36.2429 30.8398 36.3329 30.7669C36.4708 30.6549 36.9081 30.8613 37.0062 30.537C37.0639 30.345 37.0441 30.0381 36.8108 29.7526C36.6119 29.5095 36.4283 29.5146 36.3329 29.2395C36.168 28.7662 36.6758 28.2859 36.8749 28.0569C37.0529 27.852 37.084 27.6321 37.0069 27.5025C37.0057 27.4936 36.9641 27.2564 35.5693 26.677C34.8475 26.3769 33.4375 25.7537 31.868 25.3714C30.4249 25.0199 28.8484 24.8859 27.7996 24.9028C26.122 24.9297 25.1334 25.2562 25.1334 25.2562L24.711 24.361C24.711 24.361 26.3309 22.7196 26.6102 22.2762C26.8897 21.8325 26.955 21.685 26.955 21.685C26.955 21.685 28.0554 20.8473 28.4988 20.6174C28.9423 20.3875 30.2232 19.6978 30.7818 19.09C31.3402 18.4825 32.4075 17.3163 32.8021 16.922C33.1958 16.5282 33.6393 16.1501 33.787 16.0518C33.9352 15.9532 34.1874 15.6595 34.3378 15.5714C34.7039 15.3567 35.3893 15.2936 35.8982 15.014C36.4072 14.7349 36.9306 14.6139 37.1062 14.5681C37.5411 14.4549 38.696 14.1191 39.2598 13.9266C39.7702 13.7522 39.9852 13.8209 39.9994 13.6165C40.0288 13.1921 38.8125 13.5854 38.6437 13.6199Z" fill="#FCE4C4"/>
<path d="M7.5948 72.9427C7.27782 73.0484 7.00364 73.2046 6.77177 73.4116C6.54064 73.6187 6.35965 73.8826 6.22978 74.204C6.09966 74.5249 6.0346 74.8967 6.0346 75.3186V79.3038C6.0346 80.0919 6.26622 80.7109 6.72946 81.1622C7.19246 81.6132 7.82617 81.8382 8.63037 81.8382C9.44263 81.8382 10.0783 81.6132 10.5376 81.1622C10.9965 80.7109 11.2261 80.0919 11.2261 79.3038V75.3186C11.2261 74.8967 11.1611 74.5249 11.0312 74.204C10.9011 73.8826 10.7203 73.6187 10.4887 73.4116C10.2573 73.2046 9.98316 73.0484 9.66642 72.9427C9.34944 72.8368 9.00385 72.7842 8.63037 72.7842C8.25664 72.7842 7.91153 72.8368 7.5948 72.9427ZM8.28917 80.187C8.20797 80.1261 8.14903 80.053 8.11234 79.9676C8.0759 79.8828 8.05535 79.793 8.05168 79.6998C8.04752 79.6061 8.04556 79.531 8.04556 79.4741V75.1483C8.04556 75.0752 8.04752 74.9921 8.05168 74.8981C8.05535 74.805 8.0759 74.7174 8.11234 74.6362C8.14903 74.5555 8.20797 74.4858 8.28917 74.429C8.37013 74.3723 8.48435 74.3437 8.63037 74.3437C8.77663 74.3437 8.88816 74.3723 8.96544 74.429C9.04273 74.4858 9.09972 74.5555 9.13592 74.6362C9.17261 74.7174 9.19511 74.805 9.20318 74.8981C9.21101 74.9921 9.21516 75.0752 9.21516 75.1483V79.4741C9.21516 79.531 9.21101 79.6061 9.20318 79.6998C9.19511 79.793 9.17261 79.8828 9.13592 79.9676C9.09972 80.053 9.04273 80.1261 8.96544 80.187C8.88816 80.2482 8.77663 80.2787 8.63037 80.2787C8.48435 80.2787 8.37013 80.2482 8.28917 80.187ZM37.1178 72.9302V76.3546L37.5321 79.1571H38.519L38.9336 76.3546V72.9302H37.1178ZM31.9363 72.9302L30.3156 81.6922H32.3384L32.5455 80.132H33.9592L34.1422 81.6922H36.2622L34.6171 72.9302H31.9363ZM33.2646 74.295H33.2888L33.7643 78.5723H32.7527L33.2646 74.295ZM24.4371 72.9302C24.4209 73.515 24.4085 74.1407 24.4006 74.8071C24.3926 75.4734 24.3703 76.1289 24.3334 76.7751C24.2972 77.4208 24.2365 78.0259 24.1512 78.5909C24.066 79.1554 23.9425 79.6245 23.7806 79.9982H23.2817V83.3006H24.9757V81.6922H28.1503V83.3006H29.838V79.9982H29.2774V72.9302H24.4371ZM25.9809 78.9015C26.0418 78.4629 26.0924 77.9919 26.1335 77.488C26.1739 76.9842 26.2066 76.4667 26.2309 75.9342C26.2551 75.402 26.2754 74.8967 26.2918 74.4173H27.2667V79.9982H25.7434C25.841 79.7057 25.92 79.34 25.9809 78.9015ZM18.0625 72.9302V81.6922H22.6445V79.9982H20.0732V78.0484H22.2424V76.3546H20.0732V74.6242H22.5469V72.9302H18.0625ZM12.0597 72.9302V81.6922H14.9233C15.3699 81.6922 15.7438 81.6188 16.0444 81.4725C16.345 81.3268 16.5847 81.1314 16.7635 80.8877C16.9421 80.6441 17.0683 80.358 17.1411 80.0285C17.2145 79.6998 17.251 79.3525 17.251 78.9871C17.251 78.166 17.0074 77.5284 16.5197 77.0737C16.0324 76.6188 15.3415 76.3913 14.448 76.3913H14.0704V74.6242H16.7635V72.9302H12.0597ZM14.0704 77.8168H14.5336C14.6877 77.8168 14.8115 77.8515 14.9052 77.9205C14.9983 77.9899 15.0695 78.0787 15.1184 78.1885C15.1671 78.2983 15.1994 78.4241 15.2158 78.5666C15.2319 78.7085 15.2402 78.857 15.2402 79.0113C15.2402 79.2304 15.2319 79.4154 15.2158 79.5658C15.1994 79.7157 15.1671 79.8377 15.1184 79.9314C15.0695 80.0246 14.9964 80.0941 14.899 80.1386C14.8017 80.1831 14.6674 80.2051 14.497 80.2051H14.0704V77.8168ZM0.0100098 72.9302V81.6922H2.02073V74.6242H3.19058V81.6922H5.2013V72.9302H0.0100098ZM37.1178 81.6922H38.9336V79.6695H37.1178V81.6922Z" fill="url(#paint0_linear_200_1182)"/>
<path d="M13.884 0.00585938L13.8767 0.0112457L13.8772 0.0153961L13.2728 0.820824L9.43382 21.2521L7.30399 21.8905L7.35095 22.7208L7.64176 22.9334L7.64958 22.941L8.40633 22.9669C8.33833 23.005 8.24123 23.0726 8.22876 23.1919C8.21604 23.3118 8.20699 23.5402 8.29039 23.6018C8.3738 23.6635 8.40633 23.6598 8.40633 23.6598C8.40633 23.6598 8.29749 23.8193 8.35912 23.99C8.42076 24.1607 8.50416 24.2221 8.50416 24.2221C8.50416 24.2221 8.41 24.3275 8.46796 24.5014C8.52617 24.6756 8.59857 24.7191 8.59857 24.7191C8.59857 24.7191 8.5115 24.9727 8.61667 25.1031C8.72208 25.2337 8.91775 25.2922 8.91775 25.2922L8.87055 25.7632L8.62034 25.8139L8.56188 26.4918L8.86468 26.619L10.057 26.7093L10.1201 25.9968C10.1201 25.9968 10.0108 25.9237 9.99172 25.8853C9.97166 25.8466 9.97068 25.7745 9.97753 25.7084C10.0331 25.6967 10.1333 25.6754 10.2263 25.6639C10.293 25.6554 10.3273 25.6693 10.3522 25.7356C10.4063 25.9435 10.4359 26.4307 10.477 26.8044C10.5278 27.2645 10.6357 27.6981 10.7543 28.1205C10.7609 28.1438 10.9632 28.6948 11.2665 28.9536C11.1841 29.0629 11.0659 29.228 10.9771 29.3835C10.5313 30.1667 10.7509 30.8398 10.9431 31.2512C11.0055 31.4011 11.0774 31.5498 11.1554 31.6988C11.0136 32.2479 10.7619 33.3475 10.6827 33.7415C10.5154 34.5746 10.5648 35.4641 10.6555 36.1468C10.678 36.406 10.7184 36.6692 10.7844 36.9047C10.8243 37.0958 10.858 37.2293 10.871 37.2785C10.8793 37.524 10.9698 40.0202 11.313 41.6291C11.9403 44.5695 13.2046 47.0917 14.5432 49.762C14.7633 50.2013 14.9842 50.6425 15.2038 51.0884C13.9457 51.1882 12.9612 51.5739 12.2566 52.2509C11.4289 53.0458 11.0155 54.1227 11.0155 55.4823V64.598C11.0155 65.9579 11.4289 67.0353 12.2566 67.8294C13.0833 68.6241 14.2915 69.021 15.8806 69.021C16.6576 69.021 17.3419 68.9249 17.9368 68.7346L17.8954 68.9031L18.2339 68.9051C18.2224 68.9066 18.2122 68.9085 18.2004 68.91C18.2004 68.91 23.9579 68.9413 29.3288 68.9704L37.8929 69.021H37.8936C37.9014 69.021 37.908 69.0178 37.9151 69.0166C38.1543 69.0178 38.3172 69.0186 38.3852 69.0193C38.3852 69.0193 36.7125 64.7988 37.256 63.4993C37.4717 62.9835 39.5279 63.0057 39.1322 62.2791C38.6956 61.4773 34.7566 56.6277 33.2602 53.7659C33.2184 53.6859 29.5758 46.3621 26.8325 43.1487C25.8562 42.0048 23.4673 38.497 22.7267 37.0446C22.3865 36.5141 22.6753 36.42 22.9004 36.3378C23.1114 36.2603 24.1773 35.6994 24.271 35.4531C24.3644 35.2081 24.0758 34.7042 24.0489 34.4479C23.9863 33.8589 24.711 33.6266 25.0994 33.9695C25.6397 34.4464 26.4109 35.2213 27.5135 35.5458C28.4637 35.8259 30.8278 36.1106 32.3949 35.7413C33.1362 35.5659 33.8787 35.1063 34.0455 34.9579C34.4251 34.6208 34.5032 34.283 34.2471 33.9856C34.2209 33.9558 34.0492 34.0272 33.8301 34.0991C33.5234 34.1999 33.1237 34.3002 32.9011 34.1206C32.2748 33.6144 32.8691 33.1137 32.9251 33.078C33.347 32.8136 33.9377 32.8341 34.6783 32.4702C35.4734 32.0784 35.8305 31.6097 35.9333 31.4579C36.2507 30.9878 36.2426 30.8396 36.3327 30.7667C36.3845 30.7248 36.4782 30.7275 36.5807 30.7307C36.7509 30.7354 36.9448 30.74 37.0062 30.5372C37.064 30.345 37.0441 30.0381 36.8108 29.7526C36.612 29.5098 36.4283 29.5146 36.3327 29.2392C36.168 28.766 36.6761 28.2859 36.8747 28.0569C37.053 27.8522 37.084 27.6321 37.007 27.5022H37.0067C37.0057 27.4934 36.9642 27.2564 35.5693 26.6767C34.8475 26.3771 33.4375 25.7539 31.868 25.3712C30.425 25.0199 28.8481 24.8857 27.7996 24.9025C26.1218 24.9297 25.1334 25.2564 25.1334 25.2564L24.711 24.361C24.711 24.361 26.3309 22.7196 26.61 22.2764C26.8895 21.8325 26.9551 21.6848 26.9551 21.6848C26.9551 21.6848 28.0555 20.8476 28.4989 20.6172C28.9423 20.3878 30.2232 19.698 30.7818 19.0898C31.34 18.4822 32.4076 17.3165 32.8018 16.9223C33.1959 16.5285 33.6393 16.1503 33.787 16.0515C33.9352 15.9532 34.1874 15.6595 34.3381 15.5714C34.7037 15.3567 35.3893 15.2936 35.8983 15.0143C36.4073 14.7349 36.9307 14.6136 37.1063 14.5679C37.5411 14.4551 38.6961 14.1188 39.2598 13.9268C39.7703 13.7524 39.9853 13.8209 39.9995 13.6165C40.0288 13.1919 38.8125 13.5856 38.6437 13.6199C38.8 13.5372 38.9387 13.4646 38.9937 13.4364C39.2053 13.3305 39.3924 13.2391 39.489 13.1855C39.7945 13.016 39.8835 12.9725 39.9222 12.8516C39.9544 12.7509 39.8997 12.646 39.784 12.5924C39.6798 12.5442 39.4531 12.6266 39.2677 12.7095C39.1126 12.7785 38.9869 12.8482 38.9859 12.8404C38.9705 12.725 38.9064 12.6357 38.7584 12.6335C38.5845 12.6308 38.3639 12.6985 38.0438 12.8069C37.7512 12.9064 37.4582 12.9982 37.3934 13.0155C37.557 12.8203 37.6045 12.746 37.6045 12.746C37.6045 12.746 37.76 12.5682 37.6783 12.4559C37.6563 12.4258 37.5998 12.4077 37.5355 12.4302C37.3964 12.4794 37.143 12.6988 36.7135 13.0977C36.6597 13.1478 36.6357 13.1884 36.5528 13.2449C36.3906 13.288 36.0903 13.3149 35.9335 13.2711C35.808 13.2356 35.7253 13.1894 35.6691 13.1439C35.6762 13.1346 35.8476 12.756 36.1067 12.5679C36.2722 12.4473 36.7323 12.0504 36.7731 12.0117C36.9321 11.8462 36.9069 11.7165 36.8937 11.627C36.8783 11.5216 36.8199 11.4252 36.7384 11.3685C36.4611 11.1762 35.9817 11.5544 35.9274 11.5982C35.8173 11.6877 35.3169 12.113 35.1589 12.2502C35.0457 12.3488 34.7189 12.4872 34.5032 12.5787L34.3757 12.6327C34.1057 12.7494 33.7658 12.9243 33.5148 13.1398C33.3434 13.287 33.1362 13.6656 33.0716 13.8082C32.9305 13.9254 32.2684 14.4671 31.4694 14.9494C30.8647 15.3144 30.2203 15.7123 29.6616 16.0576C29.2456 16.3142 28.8777 16.5417 28.6182 16.6985C28.5688 16.7249 27.3934 17.3478 26.4226 18.1212C26.1264 18.357 25.839 18.592 25.5644 18.8166C25.3354 19.0037 25.1219 19.1771 24.917 19.3414C24.3429 19.813 23.0471 20.6409 22.9035 20.7429C22.712 20.8635 22.5127 20.9865 22.284 21.1254C21.6718 21.4972 20.3782 22.1727 20.0184 22.3466C19.8766 22.4151 19.6251 22.5582 19.3446 22.7328C19.3353 22.7384 19.3248 22.7433 19.3157 22.7487L19.3086 22.7529C19.2353 22.6751 19.1636 22.5668 19.1533 22.5012C19.0985 22.1576 19.5765 22.116 20.0857 21.9881C20.4252 21.903 20.7011 21.7357 20.6991 21.5275C20.6971 21.3338 20.5827 21.3629 20.5467 21.2225C20.4624 20.8938 20.8906 20.8652 20.9478 20.7128C20.9677 20.6602 20.9589 20.5524 20.8243 20.5069C20.6898 20.4624 20.6228 20.4712 20.4364 20.5245C20.3383 20.5529 20.2659 20.3721 20.3826 20.2466C20.4993 20.1209 20.5526 20.0815 20.5144 19.9451C20.4619 19.7558 20.3467 19.7259 20.2748 19.7712C20.2033 19.8159 20.1441 19.9407 20.0008 19.9233C19.8575 19.9054 19.7929 19.8171 19.4319 19.8159C19.3595 19.8159 19.2923 19.8374 19.2265 19.8592C19.0988 19.901 18.9777 19.9429 18.84 19.8247C18.7146 19.7183 18.547 19.3771 18.1672 19.2688C17.8771 19.1864 17.7367 19.0271 17.7367 19.0271C17.7367 19.0271 18.0928 18.9139 18.2031 18.8026C18.41 18.5935 18.3944 18.5375 18.4303 18.3932C18.4458 18.3318 18.5027 17.871 18.2481 17.9055C18.1838 17.914 17.961 18.1295 17.8177 18.1386C17.6741 18.1474 17.6521 18.1021 17.6741 18.0221C17.7213 17.8495 17.6707 17.7507 17.5501 17.6626C17.3848 17.5425 16.9333 17.6533 16.5466 17.692C16.1635 17.7308 15.8681 17.6934 15.511 17.9221C15.2026 18.1185 14.9274 18.5032 14.9274 18.5032C14.9274 18.5032 14.654 18.5213 14.4842 18.7696C14.3989 18.8946 14.3977 19.0027 14.3977 19.0027C14.3977 19.0027 14.1418 19.0125 14.0217 19.2331C13.9557 19.3541 13.9586 19.3722 13.9586 19.3722C13.9586 19.3722 13.4687 19.5058 13.2997 19.8081C13.1158 20.1368 12.9884 20.4604 13.1517 20.7818C13.2877 21.0491 13.3552 21.0878 13.3552 21.0878C13.3552 21.0878 13.2432 21.3497 13.309 21.6161C13.3829 21.9162 13.5164 22.014 13.5367 22.0411C13.5169 22.1111 13.3983 22.4887 13.5423 22.9275C13.7649 23.6048 14.1081 23.6045 14.1081 23.6045C14.1081 23.6045 14.1604 24.4165 14.1973 24.9084C14.2345 25.3998 14.2428 25.7454 14.2428 25.7454C14.2357 25.7427 13.3606 26.1908 13.3606 26.1908C13.3606 26.1908 13.2449 25.9337 13.1571 25.7928C12.822 25.2547 12.3554 24.7991 12.1592 24.5293C11.9626 24.26 11.6999 23.9369 11.5355 23.8105C11.4979 23.7686 11.4321 23.7112 11.3157 23.6331C11.0319 23.4433 10.8443 23.0249 10.8443 23.0249L12.7675 22.9168L13.0539 22.0879L12.7169 21.8107L10.9989 21.2597C11.2931 19.3128 14.179 0.842583 14.179 0.842583L13.8862 -7.62939e-06L13.884 0.00585938ZM7.49354 22.0027C7.57034 21.9697 9.58522 21.405 9.58522 21.405L13.3721 0.825699L13.7578 0.320892L13.593 0.732521L9.88581 21.8543L10.8037 21.3693L12.6971 21.9837L12.4503 22.7223L9.71412 22.5357L7.52729 22.6421C7.51873 22.5227 7.49843 22.1441 7.49354 22.0027ZM22.1857 22.9696C22.0903 22.3508 22.126 21.8347 22.1561 21.5804C22.2654 21.5173 22.3669 21.4581 22.454 21.4052C23.0862 21.0215 23.4974 20.7568 24.1274 20.3415C24.5797 20.0441 25.1319 19.5929 25.7718 19.0704C26.0455 18.8469 26.3319 18.6123 26.6268 18.3778C27.5729 17.6235 28.7594 16.9949 28.7797 16.9834C29.0475 16.8217 29.4166 16.5935 29.8338 16.336C30.3912 15.9916 31.035 15.5947 31.6391 15.2302C32.5607 14.6733 33.2817 14.0594 33.3123 14.0337L33.3558 13.9755C33.4554 13.749 33.6293 13.4846 33.7012 13.4095C33.8717 13.2315 34.2772 13.0326 34.5056 12.9338L34.6308 12.88C34.894 12.769 35.2215 12.6301 35.3739 12.4977C35.5299 12.3617 36.0255 11.9411 36.1343 11.8528C36.2749 11.7383 36.4887 11.6109 36.5513 11.6375C36.5555 11.6402 36.6421 11.682 36.5381 11.7855C36.5332 11.7897 36.0687 12.19 35.9142 12.3026C35.8403 12.3564 35.775 12.4192 35.7161 12.4845C35.6547 12.5391 35.5974 12.5936 35.5576 12.6437C35.2905 12.9786 35.119 13.0524 35.1476 13.0723C35.3842 13.2356 35.7021 13.4076 35.7021 13.4076C35.934 13.5578 36.1937 13.5279 36.3735 13.4675C36.1646 13.6957 35.8462 13.8566 35.6603 13.8818C35.3568 13.9234 35.1968 13.9887 35.0263 14.0768C34.5604 14.3184 34.1974 14.541 34.0827 14.5571C33.4874 14.6422 33.4928 14.8753 33.0151 15.3126C32.8182 15.4936 29.9933 17.678 29.09 18.2687C28.1868 18.8601 26.5116 20.2234 26.3309 20.3381C25.9481 20.582 25.605 21.2692 25.0696 21.8543C24.2522 22.7473 23.2641 23.5842 23.1777 23.6742C23.1232 23.7302 23.0202 23.7689 22.9001 23.7689C22.6323 23.7689 22.2794 23.5779 22.1857 22.9696ZM37.2467 13.2447C37.2467 13.2447 37.7505 13.0789 38.0098 12.9947C38.6682 12.7819 38.7193 12.7832 38.7467 12.8514C38.7782 12.9299 38.6112 12.9981 38.5239 13.0312C38.3062 13.1141 37.2026 13.4499 37.062 13.4956C37.141 13.4064 37.1657 13.3403 37.2467 13.2447ZM13.5959 19.7328C13.7664 19.5623 14.134 19.4586 14.134 19.4586C14.134 19.4586 14.1509 19.2815 14.2935 19.2155C14.3989 19.1666 14.5503 19.1257 14.5503 19.1257C14.5503 19.1257 14.562 18.8985 14.6938 18.7999C14.8257 18.7011 14.8998 18.6789 15.005 18.6554C15.2877 18.3496 15.6113 17.9065 16.0552 17.8661C16.3898 17.836 16.7288 17.7922 16.8829 17.7639C16.924 17.7568 17.2363 17.7127 17.2762 17.7996C17.0078 17.7974 16.6742 17.8128 16.3621 17.9231C16.1051 18.0133 16.0953 18.1117 16.0239 18.1838C15.952 18.255 15.7994 18.3362 15.7275 18.3628C15.656 18.3898 15.5751 18.435 15.5391 18.4974C15.5034 18.5607 15.5213 18.5959 15.4318 18.6409C15.3417 18.6862 15.2243 18.8951 15.2243 18.8951C15.2243 18.8951 15.6891 18.7642 15.9402 18.7703C16.2819 18.7784 16.4866 18.9672 16.4754 19.246C16.469 19.3972 16.2858 19.6376 15.8583 19.5836C15.8583 19.5836 15.8038 19.7704 15.8475 19.8954C15.8869 20.0113 15.9667 20.2951 16.009 20.4494C16.0158 20.4778 16.0241 20.5066 16.0329 20.5357C16.0356 20.546 16.0371 20.5529 16.0371 20.5529C16.0371 20.5529 16.0386 20.5543 16.0388 20.5548C16.0527 20.6005 16.0679 20.6451 16.0809 20.6847C16.0936 20.7231 16.0623 20.7013 16.0085 20.6793C15.9395 20.6517 15.8329 20.6233 15.7345 20.7245L15.5589 20.8566C15.4733 20.9334 15.321 21.052 15.3505 21.112C15.3806 21.1712 15.4156 21.2003 15.4997 21.211C15.577 21.2215 15.9994 21.2201 16.1229 21.2096C16.1533 21.212 16.1838 21.2137 16.213 21.2157C16.2125 21.2162 16.2122 21.2174 16.2117 21.2174C16.209 21.2191 16.2259 21.2922 16.2474 21.3952C16.0953 21.3101 15.8104 21.3067 15.8038 21.3123C15.7233 21.3101 15.6516 21.3372 15.5751 21.3766C15.4472 21.4426 15.2989 21.6491 15.2542 21.8553C15.1693 22.2459 15.2515 22.3738 15.6961 22.3513C15.6974 22.3513 15.6983 22.3532 15.6993 22.3532C15.9055 22.363 16.0085 22.3535 16.1679 22.3535C16.1812 22.3535 16.1951 22.352 16.2098 22.3498C16.1095 22.4919 15.9857 22.5633 15.9857 22.5633C15.9857 22.5633 15.8864 22.5668 15.8441 22.5694C15.7363 22.5765 15.6526 22.5738 15.5898 22.5714C15.4907 22.5675 15.4425 22.5636 15.4318 22.5964C15.3466 22.8517 15.4699 22.8199 15.6025 22.7891C15.6952 22.7671 15.7925 22.7451 15.8263 22.8206C15.862 22.9016 15.8057 23.0821 15.7377 23.19C15.7062 23.2391 15.5893 23.2291 15.4733 23.2183C15.3745 23.2098 15.2767 23.201 15.2324 23.2288C15.0194 23.3619 15.1277 23.4194 15.4667 23.6143C15.7067 23.7515 16.3734 24.0135 16.5167 24.1123C16.6601 24.2113 17.387 24.588 17.4589 24.5699C17.6871 24.5107 18.3125 23.9015 18.3298 23.8838C18.7358 23.4725 19.8274 22.8025 20.161 22.6413C20.433 22.5098 21.2335 22.0945 21.8792 21.7359C21.7471 21.9778 21.609 22.3929 21.551 23.1078C21.5028 23.7584 21.4666 24.3209 21.27 24.0961C20.7796 23.5355 20.8075 22.885 20.714 23.0493C20.4668 23.4852 20.4374 23.717 20.4988 24.0639C20.6113 24.6983 21.0743 24.8925 20.8598 24.8947C20.0686 24.9042 19.8206 24.7296 19.3703 24.2585C19.0839 23.9587 18.5595 24.0988 18.5595 24.0988C18.5595 24.0988 19.0029 24.4933 19.5909 24.9957C20.3427 25.637 21.6344 25.808 22.4909 25.9511C23.9318 26.1925 24.3598 26.7093 24.3598 26.7093C24.3598 26.7093 20.6734 26.4635 20.364 26.2108L20.6323 26.564C19.1252 26.5222 17.7516 24.7308 17.7516 24.7308C17.7516 24.7308 17.9192 25.379 18.1953 25.7317C18.5861 26.2304 19.0853 26.564 19.6887 26.9132C20.9278 27.6309 23.4573 27.7967 24.8238 27.7064C25.3584 27.6712 25.9376 27.6343 26.3226 27.6262C27.8011 27.5952 28.1552 27.9444 28.1552 27.9444C28.1552 27.9444 24.9889 27.8549 23.4683 28.9132C23.2917 29.036 24.1646 28.8621 24.8287 28.7547C26.3737 28.506 28.2225 28.8577 29.6812 29.4234C30.6644 29.8047 31.4195 29.7367 32.3853 29.6692C32.9584 29.6291 33.606 29.589 34.4195 29.6426C36.3591 29.7712 36.2872 30.6387 36.2872 30.6387C36.2872 30.6387 35.4612 30.0241 34.2505 30.7466C33.5138 31.1869 32.7299 31.8614 32.7299 31.8614C32.7299 31.8614 32.4037 31.5843 30.2247 31.1822C28.8408 30.9266 22.9366 30.4335 18.9758 26.8966C18.8919 26.8218 18.8183 26.7523 18.7505 26.6914C17.7516 27.0683 16.6681 28.0496 15.7133 28.8714C14.858 29.6076 14.1315 30.5747 13.2699 31.3498C13.2699 31.3498 11.9413 32.501 11.5512 33.2206C11.4607 33.3871 11.1107 34.0864 10.9021 34.9231C10.9028 34.5528 10.9302 34.172 11.0038 33.8064C11.0845 33.4045 11.1655 33.0513 11.2354 32.7476C11.322 32.3692 11.4272 31.9583 11.5204 31.6161C11.7508 31.1595 12.3277 29.996 12.2292 29.983C12.0252 29.9564 11.6965 29.9356 11.3954 30.0177C11.2596 30.0542 11.1486 30.097 11.0579 30.1403C11.0823 29.9544 11.1418 29.7563 11.2621 29.5455C11.3961 29.3097 11.7366 28.8447 11.7366 28.8447C11.7366 28.8447 11.231 28.5441 11.0591 27.973C10.9047 27.4604 10.8321 26.7976 10.7793 26.3133C10.7348 25.9065 10.7113 25.707 10.6629 25.6094C10.5802 25.4438 10.4687 25.2968 10.2182 25.3332C10.194 25.3367 10.1673 25.3411 10.1404 25.3457C10.1664 25.3107 10.1891 25.2767 10.1901 25.2513C10.1964 25.0522 9.96604 24.9231 9.945 24.8238C9.91981 24.7064 9.92862 24.4708 9.96017 24.3429C10.0656 23.9134 9.58327 24.0267 9.37586 23.662C9.17701 23.313 9.22055 22.9718 8.86712 23.1657C8.73358 23.2391 8.49095 23.37 8.39214 23.4409C8.29578 23.1777 8.39899 23.0848 8.6037 22.926L8.60493 22.9256L8.60542 22.9253L8.60566 22.9251C8.64822 22.8969 8.70007 22.8639 8.7304 22.8468C9.01167 22.6903 9.42869 22.6374 9.60161 22.6727C9.87432 22.7284 10.0436 23.074 10.0362 23.2562C10.0294 23.4387 10.0426 23.6696 10.1297 23.8665C10.2167 24.0634 10.2243 24.2673 10.2461 24.3764C10.2681 24.4862 10.3628 24.5293 10.3628 24.5293C10.6179 24.1688 10.7954 23.9944 11.1056 23.9281C11.2777 23.9389 11.4194 23.9024 11.7764 24.418C11.8457 24.5178 12.1922 24.9982 12.4395 25.4064C12.6868 25.8141 13.0241 26.6547 13.0241 26.6547L14.5324 25.9418C14.5324 25.9418 14.36 24.5415 14.3544 24.2128C14.3392 23.3546 14.2377 22.9596 14.2377 22.9596C14.2377 22.9596 14.0472 23.0092 13.951 22.9498C13.9095 22.9236 13.8114 22.8884 13.7671 22.6788C13.6575 22.1615 13.9065 21.9154 13.9065 21.9154C13.7578 21.7858 13.6791 21.5082 13.7314 21.1531C13.7688 20.8992 13.5908 21.075 13.4836 21.2966C13.4472 21.246 13.4492 21.1562 13.4937 21.0457C13.6847 20.567 13.9642 20.1478 14.1281 19.6557C14.1281 19.6557 14.0273 19.6792 13.9339 19.7183C13.8407 19.7567 13.7209 19.8815 13.6084 20.0485C13.5313 20.1632 13.3435 20.2975 13.2413 20.4479C13.2381 20.434 13.2376 20.0916 13.5959 19.7328ZM8.47237 23.9266C8.39655 23.6307 8.7529 23.5451 8.84609 23.536C8.90748 23.5304 8.9992 23.5387 9.0535 23.6143C9.076 23.6451 9.09385 23.7104 9.05814 23.7735C9.01852 23.8435 8.94245 23.8229 8.86419 23.8518C8.7123 23.9076 8.60982 24.0025 8.55724 24.0577C8.51761 24.0208 8.47921 23.9523 8.47237 23.9266ZM8.57876 24.4809C8.48826 24.1705 8.85563 24.0499 8.93096 24.0438C8.99064 24.0396 9.087 24.0147 9.13323 24.1076C9.15353 24.1487 9.19682 24.3082 9.00849 24.397C8.82774 24.4823 8.77027 24.4982 8.70716 24.5745C8.69249 24.5924 8.6673 24.6325 8.66828 24.6425C8.63281 24.6171 8.60835 24.5829 8.57876 24.4809ZM8.67146 24.9255C8.65311 24.7247 8.74385 24.6707 8.74385 24.6707C8.74385 24.6707 8.86272 24.5435 9.12711 24.5552C9.30517 24.5635 9.32743 24.643 9.32743 24.7164C9.32743 24.8186 9.22666 24.9201 9.09556 24.9424C8.97009 24.9637 8.75584 25.0302 8.75095 25.0933C8.72135 25.0588 8.67757 24.9969 8.67146 24.9255ZM8.75437 26.4023L8.78714 25.9303L9.00678 25.887L9.05667 25.2963C9.12712 25.2696 9.23351 25.2288 9.2861 25.2149C9.60259 25.1293 9.77331 25.2878 9.77331 25.2878L9.73686 25.8417L9.80241 25.8853C9.80241 25.8853 9.78089 26.4466 9.75912 26.4904C9.75741 26.4935 9.74469 26.4948 9.72292 26.4948C9.54315 26.4948 8.75437 26.4023 8.75437 26.4023ZM30.5094 25.4514C30.3903 25.3648 30.2127 25.2919 30.0043 25.2293C30.9562 25.3423 31.8252 25.503 32.5352 25.684C33.2264 25.8603 34.6829 26.4167 36.1255 27.1111C36.2179 27.1559 36.4434 27.2769 36.6 27.3613C36.2534 27.4032 35.8408 27.646 35.8408 27.646C35.8408 27.646 33.5517 26.4089 31.5518 26.1925C29.8967 26.0127 27.7681 26.1565 27.7681 26.1565C27.7681 26.1565 28.7581 25.7119 30.5094 25.4514ZM15.4447 29.6665C16.5595 28.5067 17.3578 28.5346 17.3578 28.5346C17.3578 28.5346 16.8056 29.4234 16.6691 30.0177C16.55 30.5355 16.6512 30.9266 17.1896 31.1084C17.8059 31.3167 17.9228 31.5958 17.9228 31.5958C17.9228 31.5958 15.0287 31.1966 14.226 31.6631C14.226 31.6631 15.3469 31.8932 16.246 32.4934C16.1799 32.4832 15.6453 32.3007 14.7313 32.4259C13.851 32.546 13.2672 32.8412 12.9275 33.0601C12.9076 33.0728 12.8905 33.0792 12.8773 33.0795C12.7149 33.0795 13.0828 32.1226 15.4447 29.6665ZM19.8528 33.6909C19.9167 33.5853 20.1001 33.2318 20.1322 32.9281C20.1674 32.6008 20.1556 32.3318 20.1322 32.0867C20.1089 31.8409 20.0935 31.5031 20.0784 31.3757C20.0253 30.9203 20.4083 30.1073 20.5218 30.0177C20.5866 30.1577 20.7057 31.5149 20.6998 31.7142C20.6296 34.0243 21.6236 35.6146 21.6236 35.6146C20.5631 34.1686 19.8763 33.7513 19.8528 33.6909ZM14.8362 49.6155C13.5071 46.964 12.2517 44.4604 11.6334 41.5604C11.4083 40.5067 11.2939 39.0607 11.2403 38.1404C11.2288 37.3832 11.2176 36.4195 11.4695 35.6175C11.5438 35.3803 11.75 34.8808 11.9839 34.4714C12.2177 34.0622 12.5078 33.8022 12.6711 33.6388C12.8465 33.4632 13.6201 32.8532 14.9883 32.7299C16.3942 32.6023 17.2018 33.0802 17.6232 33.2291C18.0331 33.3734 19.7213 34.2488 21.1778 37.0361C21.5231 37.6977 21.6877 38.6956 21.9272 39.7962C19.3448 36.9495 17.0597 35.1655 16.9736 35.299C16.8765 35.4487 19.6188 38.2991 19.8318 38.5652C19.9558 38.7205 21.6791 40.4879 22.8695 42.7151C22.8717 42.7195 22.8739 42.7239 22.8764 42.7283C22.9336 42.8425 22.994 42.9553 23.0579 43.0673C24.033 44.7684 24.7815 46.397 25.3526 47.9286C24.6672 46.7786 23.8271 45.7308 22.8152 44.9229C19.3013 42.1188 17.8732 41.1387 16.6855 39.499C15.9989 38.551 15.7233 37.672 15.7233 37.672C15.6795 38.4424 15.9204 39.4218 16.5744 40.628C17.5709 42.4668 19.4033 43.4725 21.2054 45.7022C22.8796 47.774 22.961 48.0179 23.8723 49.6072C24.1976 50.1749 24.4065 51.0265 24.7682 51.0265C24.9757 51.0265 24.8587 49.1865 25.0141 49.222C25.1041 49.2418 25.1618 49.3717 25.197 49.4441C25.3902 49.8391 25.4788 50.2962 25.5707 50.7235C25.7089 51.366 25.8158 52.0151 25.9107 52.6647C26.0112 53.3493 26.0966 54.0361 26.1653 54.7249C26.1736 54.807 26.1817 54.89 26.1895 54.9726C26.1956 55.0392 26.1832 55.1529 26.211 55.2126C25.3875 53.434 24.5029 51.7952 24.0411 51.0265C23.1342 49.5147 21.3296 47.4221 21.0048 47.0337C19.788 45.5787 17.7969 44.1241 16.5087 42.8978C15.5834 42.0173 16.8207 43.792 17.4107 44.424C18.243 45.3167 20.1566 47.1054 21.7953 49.627C22.26 50.3424 22.2334 50.6048 21.5752 49.8562C20.4303 48.5533 17.3808 46.4009 18.2322 47.3414C18.2322 47.3414 18.7681 47.7826 19.2042 48.3011C23.0469 52.8692 23.2597 58.1615 23.2594 59.9245C23.2765 62.7981 22.827 66.7283 20.8356 68.006C19.8802 68.6194 18.5844 68.5908 18.3504 68.5798C18.7931 68.3905 19.1798 68.1417 19.5051 67.8294C20.3317 67.0353 20.7456 65.9579 20.7456 64.598V55.4823C20.7456 54.1227 20.3317 53.0458 19.5051 52.2509C18.6774 51.4565 17.4694 51.0595 15.8806 51.0595C15.7703 51.0595 15.6663 51.0661 15.5597 51.0696C15.3192 50.5804 15.0771 50.0961 14.8362 49.6155ZM32.7903 61.4098C32.5624 60.5516 32.162 59.2387 31.5711 57.9712C30.638 55.9693 30.7437 56.0918 30.334 55.1517C30.2648 54.9924 29.7976 53.8549 29.8918 54.0007C30.5243 54.978 31.3065 56.3188 32.1331 57.8105C32.4266 58.3393 33.1937 59.6498 33.6227 60.4968C33.7922 60.8309 34.5509 60.8441 34.6477 60.8309C36.0881 60.6333 36.5679 60.5822 37.6757 61.1359C37.6771 61.1369 37.5722 61.122 37.4279 61.1075C37.2427 61.0889 36.9921 61.0701 36.8162 61.0838C36.0607 61.1415 35.8907 61.0899 34.7676 61.5857C34.6076 61.6566 34.2985 61.7955 33.9839 61.9379C33.8492 61.9983 33.7073 62.0296 33.5698 62.0296C33.2225 62.0296 32.9024 61.831 32.7903 61.4098ZM15.2173 65.8145C15.0367 65.6749 14.9472 65.3669 14.9472 64.891V55.1896C14.9472 54.7139 15.0367 54.4062 15.2173 54.2668C15.397 54.1266 15.6186 54.0574 15.8806 54.0574C16.1261 54.0574 16.3428 54.1266 16.5319 54.2668C16.7197 54.4062 16.8144 54.7139 16.8144 55.1896V64.891C16.8144 65.3669 16.7197 65.6749 16.5319 65.8145C16.3428 65.9539 16.1261 66.0239 15.8806 66.0239C15.6186 66.0239 15.397 65.9539 15.2173 65.8145ZM26.8523 55.7839C26.8523 55.7839 27.3718 56.5365 27.6839 57.1093C28.1467 57.9597 28.369 58.2139 29.1419 59.9289C29.5614 60.86 30.107 61.763 30.5267 62.3033C30.6593 62.4735 30.7723 62.6041 30.8601 62.7091L31.2707 63.1337L30.3093 63.3907C30.2775 63.4007 30.2445 63.4117 30.21 63.423C29.5129 63.6522 29.5354 64.0819 29.5513 64.4833C29.567 64.8704 29.6839 65.411 28.684 67.0377C29.0455 60.7964 27.6238 57.9852 26.8523 55.7839ZM15.2769 19.6557C14.5087 19.4874 14.2644 19.9986 14.2644 19.9986C14.575 19.8847 14.8337 19.743 15.1016 19.9429C14.9233 19.9602 14.5693 20.0177 14.3798 20.2405C14.1279 20.5374 14.2213 20.9112 14.2333 21.1531C14.2352 21.1944 14.3659 20.9843 14.4987 20.9476C14.4725 20.8576 14.4757 20.8243 14.5102 20.7245C14.5566 20.5658 14.6921 20.4487 14.8205 20.4122C14.8059 20.6035 14.8937 20.5727 15.0795 20.6015C15.0644 20.6204 15.0497 20.6387 15.0345 20.6573C15.0106 20.6585 14.9866 20.6585 14.9624 20.6585C14.9152 20.6585 14.868 20.6583 14.8225 20.6688C14.7594 20.6837 14.6872 20.6976 14.631 20.7766C14.8041 20.7507 14.9171 20.7879 14.9123 20.9143C15.3207 20.6451 15.5169 20.4293 15.4144 19.9761C15.5362 19.8039 15.6123 19.6768 15.6267 19.4632C15.4995 19.5897 15.4609 19.6721 15.2769 19.6557ZM14.5432 20.3513C14.6554 20.2271 14.8653 20.1537 14.9311 20.1417C14.9971 20.13 15.0089 20.1498 15.0089 20.1498C15.0023 20.1716 14.9957 20.1936 14.9891 20.2156C14.9891 20.2156 14.7525 20.3048 14.6554 20.4019C14.5586 20.4995 14.5004 20.5653 14.485 20.6162C14.4696 20.6666 14.4578 20.6976 14.4578 20.6976C14.4578 20.6976 14.4307 20.4758 14.5432 20.3513ZM17.1252 25.459C16.3964 27.0492 15.1292 26.2321 13.9816 27.1938C13.24 27.8158 13.1312 28.6058 13.1312 28.6058C13.1312 28.6058 13.4501 28.5243 13.7302 28.462C13.5959 28.5833 12.5782 30.5666 12.5484 30.6165C12.5185 30.6661 13.9684 29.0519 16.6664 27.2968C17.6364 26.6657 18.3863 26.3928 18.3863 26.3928C17.8243 25.8312 17.5909 24.9233 17.5909 24.9233C17.5909 24.9233 17.2859 25.108 17.1252 25.459ZM2.13544 51.5754C1.48827 51.919 1.0177 52.3289 0.722727 52.8039C0.428004 53.2794 0.255574 53.7668 0.206413 54.266C0.157251 54.7655 0.132794 55.1717 0.132794 55.4823V56.6864C0.132794 56.8997 0.161408 57.1328 0.218885 57.3864C0.276118 57.6405 0.378842 57.8949 0.526082 58.1481C0.673321 58.4022 0.865809 58.636 1.1033 58.8485C1.34079 59.0616 1.63992 59.2418 2.00019 59.3896C1.50907 59.5855 1.128 59.8315 0.857738 60.1265C0.587717 60.4212 0.390829 60.7409 0.268048 61.0845C0.145267 61.4284 0.0716451 61.7767 0.0469421 62.1289C0.0224838 62.4811 0.0100098 62.8128 0.0100098 63.1244V64.598C0.0100098 65.9579 0.423359 67.0353 1.25128 67.8294C2.07797 68.6241 3.28646 69.021 4.87527 69.021C6.46384 69.021 7.67209 68.6241 8.49976 67.8294C9.32645 67.0353 9.74029 65.9579 9.74029 64.598V63.1244C9.74029 62.6819 9.72365 62.2725 9.69112 61.8956C9.6581 61.5187 9.57201 61.1704 9.43333 60.8512C9.29392 60.5318 9.08945 60.2539 8.81894 60.0155C8.54867 59.7789 8.16761 59.5698 7.67649 59.3896C8.03627 59.2418 8.34371 59.0574 8.59808 58.8363C8.85147 58.615 9.05227 58.3816 9.19976 58.1363C9.34724 57.8903 9.45364 57.6405 9.51918 57.3864C9.58473 57.1328 9.61775 56.8997 9.61775 56.6864V55.4823C9.61775 55.1717 9.59305 54.7655 9.54389 54.266C9.49497 53.7668 9.32254 53.2794 9.02806 52.8039C8.73285 52.3289 8.26178 51.919 7.61485 51.5754C6.96768 51.2315 6.05466 51.0595 4.87527 51.0595C3.69565 51.0595 2.78237 51.2315 2.13544 51.5754ZM4.21171 57.7303C4.03146 57.5914 3.9417 57.2847 3.9417 56.8092V55.1874C3.9417 54.7124 4.03146 54.4057 4.21171 54.266C4.39173 54.1266 4.61308 54.0574 4.87527 54.0574C5.12083 54.0574 5.33778 54.1266 5.5266 54.266C5.71444 54.4057 5.80909 54.7124 5.80909 55.1874V56.8092C5.80909 57.2847 5.71444 57.5914 5.5266 57.7303C5.33778 57.8705 5.12083 57.9392 4.87527 57.9392C4.61308 57.9392 4.39173 57.8705 4.21171 57.7303ZM4.21171 65.8138C4.03146 65.6741 3.9417 65.366 3.9417 64.8883V62.0729C3.9417 61.5955 4.03146 61.287 4.21171 61.1476C4.39173 61.0075 4.61308 60.937 4.87527 60.937C5.12083 60.937 5.33778 61.0075 5.5266 61.1476C5.71444 61.287 5.80909 61.5955 5.80909 62.0729V64.8883C5.80909 65.366 5.71444 65.6741 5.5266 65.8138C5.33778 65.9537 5.12083 66.0239 4.87527 66.0239C4.61308 66.0239 4.39173 65.9537 4.21171 65.8138Z" fill="url(#paint1_linear_200_1182)"/>
<path d="M0 68.7268V68.864V69.3657H38.9632V68.864V68.7268H0Z" fill="black"/>
<path d="M0 69.3657V69.5029V70.0045H38.9632V69.5029V69.3657H0Z" fill="#FFA500"/>
<path d="M0 70.6434V70.7806V71.2822H38.9632V70.7806V70.6434H0Z" fill="#FFA500"/>
<path d="M0 70.0045V70.1417V70.6434H38.9632V70.1417V70.0045H0Z" fill="black"/>
<path d="M0 71.2822V71.4194V71.9211H38.9632V71.4194V71.2822H0Z" fill="black"/>
<defs>
<linearGradient id="paint0_linear_200_1182" x1="0.0100098" y1="78.0423" x2="38.9336" y2="78.0423" gradientUnits="userSpaceOnUse">
<stop stop-color="#FF6500"/>
<stop offset="0.049479" stop-color="#FF6500"/>
<stop offset="0.5103" stop-color="#FF3327"/>
<stop offset="1" stop-color="#DE111F"/>
</linearGradient>
<linearGradient id="paint1_linear_200_1182" x1="0.0100098" y1="34.5105" x2="39.9999" y2="34.5105" gradientUnits="userSpaceOnUse">
<stop stop-color="#FF6500"/>
<stop offset="0.5103" stop-color="#FF3327"/>
<stop offset="1" stop-color="#DE111F"/>
</linearGradient>
</defs>
</svg>
