<?xml version="1.0" standalone="no"?>
<!DOCTYPE svg PUBLIC "-//W3C//DTD SVG 20010904//EN"
 "http://www.w3.org/TR/2001/REC-SVG-20010904/DTD/svg10.dtd">
<svg version="1.0" xmlns="http://www.w3.org/2000/svg"
 width="1000.000000pt" height="1000.000000pt" viewBox="0 0 1000.000000 1000.000000"
 preserveAspectRatio="xMidYMid meet">

<g transform="translate(0.000000,1000.000000) scale(0.100000,-0.100000)"
fill="#000000" stroke="none">
<path d="M0 5000 l0 -5000 5000 0 5000 0 0 5000 0 5000 -5000 0 -5000 0 0
-5000z m3840 4670 c0 -5 -4 -10 -10 -10 -5 0 -10 5 -10 10 0 6 5 10 10 10 6 0
10 -4 10 -10z m-550 -2610 c0 -5 -4 -10 -10 -10 -5 0 -10 5 -10 10 0 6 5 10
10 10 6 0 10 -4 10 -10z m-1695 -55 c171 -14 373 -30 450 -36 201 -15 307 -43
499 -132 277 -127 464 -269 557 -423 50 -83 51 -87 53 -167 1 -98 -20 -151
-86 -217 -66 -65 -255 -180 -297 -180 -18 0 -12 -18 7 -24 10 -4 34 -20 53
-37 31 -28 34 -35 36 -90 2 -85 -22 -142 -152 -354 -47 -77 -94 -157 -106
-179 -11 -21 -29 -41 -40 -43 -11 -3 -18 -11 -15 -18 6 -15 -35 -7 -47 9 -6 8
-10 7 -14 -1 -6 -16 -253 -19 -253 -3 0 6 -7 10 -15 10 -8 0 -15 -4 -15 -10 0
-14 -54 -12 -69 3 -10 10 -12 9 -9 -3 2 -12 -8 -15 -56 -14 -37 1 -61 6 -67
15 -7 10 -11 11 -16 3 -6 -9 -12 -8 -21 2 -9 10 -9 14 -1 14 16 0 125 89 185
152 50 51 107 134 132 191 16 37 15 87 -3 111 -20 26 -93 33 -133 12 -54 -28
-242 -302 -298 -433 l-27 -63 -96 1 c-69 1 -86 4 -61 9 30 6 26 8 -27 9 -36 0
-63 -3 -63 -9 0 -5 -16 -10 -35 -10 -19 0 -35 5 -35 10 0 6 -13 10 -30 10 -16
0 -30 -4 -30 -9 0 -15 -61 -19 -67 -4 -4 9 -16 11 -45 7 l-40 -7 17 34 c74
146 169 281 350 499 214 258 280 364 304 489 14 72 2 176 -29 248 -69 160
-274 361 -580 568 -140 95 -142 97 -105 90 17 -3 170 -16 340 -30z m6631 -54
c382 -79 748 -399 929 -812 65 -147 80 -214 80 -359 0 -120 -1 -128 -32 -193
-33 -70 -122 -167 -153 -167 -5 0 -10 -4 -10 -9 0 -5 -13 -12 -30 -16 -16 -4
-32 -11 -35 -16 -4 -5 -17 -9 -31 -9 -13 0 -24 -4 -24 -9 0 -5 -24 -12 -52
-16 -29 -4 -58 -11 -63 -15 -6 -5 -28 -10 -50 -12 -38 -3 -40 -4 -48 -48 -4
-25 -12 -68 -18 -96 l-10 -52 -127 -1 c-80 -1 -128 -6 -131 -13 -2 -7 -5 -7
-10 0 -4 6 -47 12 -99 13 -82 1 -92 4 -86 18 23 54 56 226 66 343 9 108 9 162
-1 255 -46 420 -199 780 -440 1035 -44 47 -106 103 -137 124 -30 21 -50 40
-44 42 6 2 59 13 118 23 128 22 299 18 438 -10z m-5017 -46 l235 -15 34 -32
c68 -66 205 -245 242 -318 63 -125 83 -209 77 -320 -9 -165 -68 -302 -262
-610 -89 -141 -185 -305 -258 -440 -17 -31 -37 -55 -50 -58 -20 -5 -20 -6 -1
-13 10 -5 -1 -5 -26 -2 -25 3 -46 10 -48 15 -5 11 -39 10 -44 -1 -1 -5 -58
-11 -125 -12 -67 -2 -120 -3 -118 -1 2 2 25 7 52 12 l48 8 -65 -1 c-36 -1 -68
-6 -72 -12 -5 -6 -8 -4 -8 5 0 13 -1 13 -10 0 -26 -40 -6 18 31 93 66 130 125
229 249 417 194 292 238 378 265 515 32 163 -21 336 -155 510 -38 49 -195 208
-254 258 l-30 24 30 -4 c16 -2 134 -10 263 -18z m4428 -23 c381 -302 611 -993
504 -1522 -24 -120 -62 -235 -78 -236 -7 -1 -79 -2 -160 -3 -102 -2 -142 -5
-128 -12 15 -7 8 -8 -25 -4 -132 15 -210 18 -210 6 0 -6 -18 -11 -45 -11 -25
0 -45 5 -45 10 0 6 -9 10 -20 10 -11 0 -20 -4 -20 -10 0 -5 -7 -10 -15 -10 -8
0 -15 5 -15 10 0 14 -28 12 -32 -2 -5 -14 -169 -12 -178 1 -7 12 -42 11 -67
-1 -16 -8 -30 -7 -52 1 -21 9 -35 10 -49 2 -29 -16 -37 -14 -21 6 10 11 10 14
2 9 -18 -10 -17 -8 18 102 113 353 125 406 139 622 20 317 -68 668 -227 906
l-61 92 67 6 c36 3 109 8 161 12 l95 6 74 -93 c162 -207 265 -482 296 -789 23
-221 10 -364 -50 -588 -18 -67 -30 -132 -27 -145 7 -26 26 -47 42 -47 6 0 8
-5 4 -12 -11 -17 98 -3 129 16 28 19 50 66 71 151 97 388 42 830 -145 1184
-67 125 -90 158 -186 267 l-63 71 122 15 c68 9 128 16 135 17 6 0 33 -16 60
-37z m-3457 -22 c190 -26 407 -91 540 -163 148 -80 231 -158 297 -282 l38 -70
0 -125 c-1 -113 -3 -131 -28 -190 -36 -86 -82 -152 -153 -224 -161 -160 -370
-260 -649 -311 -49 -9 -97 -18 -106 -21 -16 -4 -71 -95 -174 -287 -38 -71 -50
-86 -61 -76 -11 9 -14 8 -15 -2 0 -10 -2 -11 -6 -2 -3 10 -8 9 -20 -2 -19 -19
-54 -19 -79 0 -24 18 -54 18 -78 0 -24 -18 -187 -9 -199 12 -5 7 -12 11 -18 8
-27 -17 71 167 234 440 230 384 279 506 277 693 -1 184 -91 368 -275 564 -36
38 -65 70 -65 71 0 6 468 -23 540 -33z m2285 -55 c267 -70 482 -358 462 -621
-9 -117 -54 -193 -160 -271 l-49 -36 34 -21 c59 -37 88 -68 115 -125 62 -131
19 -347 -108 -546 l-42 -65 -501 -1 c-276 -1 -485 -5 -466 -9 25 -5 11 -7 -50
-7 -50 0 -77 3 -65 8 20 8 20 8 0 9 -11 2 -23 2 -27 1 -12 -2 -11 1 44 95 148
256 250 524 289 764 43 259 8 513 -101 731 l-50 99 262 3 c145 1 283 3 308 5
25 1 72 -5 105 -13z m-4512 -1702 c-7 -2 -19 -2 -25 0 -7 3 -2 5 12 5 14 0 19
-2 13 -5z m1790 0 c-7 -2 -19 -2 -25 0 -7 3 -2 5 12 5 14 0 19 -2 13 -5z
m2559 -713 c-4 -56 -68 -330 -141 -608 -64 -243 -69 -257 -92 -260 -13 -1 -87
-4 -165 -6 l-141 -5 -27 117 c-15 64 -29 127 -31 138 -6 26 -32 39 -50 24 -6
-5 -20 -54 -29 -107 -31 -173 -29 -168 -57 -165 -13 2 -55 5 -94 6 -106 3
-103 2 -98 34 24 153 83 419 155 700 l41 162 123 0 122 0 6 -272 c8 -398 18
-468 62 -468 20 0 33 38 54 155 17 95 28 136 106 425 19 69 34 133 34 142 0
14 12 18 63 21 34 2 85 3 112 3 l50 -1 -3 -35z m404 -36 c-15 -146 -91 -459
-202 -825 -4 -13 -25 -16 -129 -18 -96 -1 -125 1 -125 11 0 9 -3 9 -10 -2 -5
-8 -10 -12 -10 -8 0 4 31 133 69 285 39 153 84 352 101 443 18 91 33 170 35
175 1 6 54 9 140 7 l138 -3 -7 -65z m-1221 49 c-31 -81 -178 -693 -200 -829
l-6 -42 -52 -6 c-29 -3 -82 -5 -119 -5 l-68 1 6 42 c31 224 80 458 150 713
l37 132 36 4 c20 2 78 4 130 5 85 2 93 0 86 -15z m2010 -73 c0 -47 -4 -115 -9
-152 l-8 -68 -88 0 c-109 0 -119 -8 -145 -117 -10 -43 -47 -166 -82 -275 l-64
-198 -143 0 -143 0 1 44 c1 24 5 42 10 38 5 -3 7 2 3 11 -3 9 2 45 13 79 27
88 88 337 92 373 l3 30 -86 3 -86 3 17 102 c10 56 21 128 25 160 l7 58 341 -3
342 -3 0 -85z m-2410 60 c-92 -289 -195 -736 -195 -848 0 -21 -2 -24 -10 -12
-6 10 -10 11 -10 3 0 -10 -30 -13 -115 -13 l-114 0 5 53 c22 227 54 393 119
619 62 217 56 206 107 211 24 2 83 4 131 5 85 2 88 1 82 -18z m2812 8 c15 -20
93 -239 99 -278 3 -20 12 -44 20 -54 13 -19 14 -19 34 -1 48 44 161 299 144
326 -3 5 67 9 165 9 130 0 171 -3 171 -12 -1 -45 -34 -138 -81 -228 -54 -104
-201 -310 -287 -403 -42 -46 -112 -178 -112 -211 0 -9 -3 -16 -7 -17 -133 -18
-323 -15 -323 7 0 5 12 35 28 65 24 48 27 65 26 144 -1 113 -47 294 -105 414
-22 46 -53 121 -68 167 l-27 84 157 0 c114 0 159 -3 166 -12z m-3260 -30 c-2
-13 -17 -63 -31 -113 -15 -49 -29 -108 -32 -130 -3 -22 -12 -66 -20 -98 -17
-65 -39 -261 -37 -322 3 -68 -8 -185 -17 -180 -5 3 -11 -1 -13 -7 -4 -10 -8
-10 -14 -2 -5 8 -39 11 -94 9 l-86 -3 -7 114 c-4 63 -5 123 -1 134 3 11 2 20
-2 20 -14 0 -43 -73 -43 -108 0 -18 -4 -32 -10 -32 -5 0 -10 -12 -10 -27 0
-15 -5 -42 -12 -60 -9 -25 -18 -33 -38 -34 -20 0 -22 -2 -7 -8 10 -4 -9 -7
-45 -7 -50 -1 -56 1 -28 6 28 6 20 7 -35 8 -51 0 -65 -2 -50 -9 21 -10 21 -10
-66 8 -26 5 -29 10 -29 44 0 22 -4 39 -9 39 -5 0 -11 21 -14 48 -3 26 -9 62
-13 81 -9 44 -24 21 -24 -39 0 -25 -3 -75 -6 -111 l-7 -67 -86 -4 c-120 -7
-136 2 -138 72 -2 90 43 353 70 408 8 15 24 58 37 96 12 37 42 109 65 160 l43
91 153 10 c85 6 157 8 162 5 4 -3 -4 -42 -17 -86 -28 -91 -57 -219 -62 -272
-11 -123 -14 -242 -6 -277 l9 -40 7 30 c4 17 11 38 17 47 5 10 9 27 9 39 0 11
6 35 13 52 8 18 24 64 36 102 27 82 91 245 131 330 15 33 30 68 33 77 6 18 40
22 236 26 92 2 93 2 88 -20z m-1138 -100 c-46 -118 -61 -168 -83 -283 -19 -97
-23 -140 -19 -225 3 -58 9 -109 13 -115 4 -5 10 -34 14 -62 l7 -53 -108 0
-108 0 -13 38 c-7 20 -21 69 -31 107 l-18 70 -10 -35 c-6 -20 -8 -50 -6 -67 3
-17 0 -34 -6 -37 -7 -5 -8 -13 -2 -25 15 -27 2 -63 -19 -56 -10 3 -29 1 -43
-4 -17 -7 -48 -6 -92 1 -53 9 -68 9 -75 -1 -10 -17 -70 -5 -70 13 0 7 -9 23
-20 36 -11 13 -20 31 -20 40 0 9 -7 25 -15 36 -8 10 -15 27 -15 36 0 9 -5 20
-11 24 -9 5 -10 -6 -5 -42 4 -27 8 -58 9 -69 1 -11 7 -23 12 -27 6 -5 6 -8 -2
-8 -6 0 -9 -9 -6 -20 5 -19 0 -20 -106 -20 l-110 0 -16 30 c-8 16 -17 55 -20
85 -3 31 -7 60 -9 64 -7 11 21 190 32 204 5 7 17 37 27 67 18 53 36 90 104
211 l31 56 88 11 c135 17 242 25 242 19 0 -4 -12 -32 -26 -64 -52 -117 -76
-237 -76 -373 0 -80 4 -126 11 -128 6 -2 13 -19 17 -38 3 -19 10 -34 15 -34 8
0 14 58 10 84 -3 16 31 161 45 193 8 17 14 37 14 43 0 14 64 155 98 215 12 22
31 59 42 82 20 40 22 41 83 48 80 10 204 22 239 24 l28 1 -21 -52z m-1384
-173 c49 -8 98 -37 113 -67 46 -94 84 -189 92 -232 16 -90 27 -130 44 -163 10
-18 15 -37 11 -43 -3 -5 -1 -10 5 -10 7 0 10 -6 7 -12 -2 -7 0 -21 5 -31 9
-17 1 -18 -121 -16 -103 1 -131 4 -135 16 -4 9 -1 12 7 8 6 -4 4 0 -5 8 -10 8
-15 17 -11 20 3 4 1 7 -5 7 -12 0 -52 100 -52 130 0 11 -4 20 -10 20 -5 0 -10
8 -10 17 0 29 -41 63 -75 63 -32 0 -85 -43 -85 -68 0 -7 -4 -12 -9 -12 -16 0
-3 -106 18 -150 27 -57 19 -73 -33 -66 -23 3 -78 6 -123 7 -89 2 -96 6 -126
65 -25 48 -17 139 16 191 15 24 27 46 27 49 0 10 15 27 96 108 125 125 218
180 289 171 17 -2 48 -7 70 -10z m-600 -117 c3 -3 -13 -41 -35 -85 -24 -48
-43 -100 -47 -132 -6 -53 -6 -53 -37 -47 -16 4 -33 11 -37 17 -8 14 -110 -4
-142 -26 -63 -41 -93 -105 -69 -147 9 -15 13 -30 9 -34 -6 -7 -76 -8 -213 -5
-72 2 -89 22 -81 100 3 41 12 67 28 87 69 84 165 163 294 242 l70 43 128 -4
c70 -2 129 -6 132 -9z m420 -458 c3 -5 1 -10 -4 -10 -6 0 -11 5 -11 10 0 6 2
10 4 10 3 0 8 -4 11 -10z"/>
<path d="M2430 6406 c0 -2 6 -21 14 -42 28 -81 28 -205 1 -294 -10 -34 8 -41
70 -25 72 19 116 51 150 109 22 38 24 49 16 85 -11 52 -31 83 -73 114 -41 31
-178 72 -178 53z"/>
<path d="M2028 5113 c7 -3 16 -2 19 1 4 3 -2 6 -13 5 -11 0 -14 -3 -6 -6z"/>
<path d="M8388 6582 c-25 -5 -23 -10 19 -72 79 -117 169 -300 225 -460 20 -56
26 -65 48 -65 18 0 30 10 47 40 29 51 29 79 -2 168 -40 114 -102 214 -185 297
-73 73 -117 100 -152 92z"/>
<path d="M7068 5113 c7 -3 16 -2 19 1 4 3 -2 6 -13 5 -11 0 -14 -3 -6 -6z"/>
<path d="M7310 5110 c0 -5 5 -10 10 -10 6 0 10 5 10 10 0 6 -4 10 -10 10 -5 0
-10 -4 -10 -10z"/>
<path d="M4424 6259 c-1 -112 -5 -147 -26 -216 l-25 -83 26 0 c112 1 226 152
206 273 -17 99 -58 147 -132 154 l-48 5 -1 -133z"/>
<path d="M3635 5110 c-18 -8 -17 -9 7 -9 15 -1 30 4 33 9 7 12 -12 12 -40 0z"/>
<path d="M3775 5110 c3 -5 17 -10 31 -10 13 0 24 5 24 10 0 6 -14 10 -31 10
-17 0 -28 -4 -24 -10z"/>
<path d="M6335 6431 c7 -16 19 -114 33 -251 6 -67 9 -75 29 -78 57 -8 143 78
143 142 0 42 -20 109 -39 132 -24 30 -78 56 -129 64 -37 6 -42 5 -37 -9z"/>
<path d="M6292 5635 c-6 -8 -26 -53 -43 -100 -17 -47 -64 -150 -103 -230 l-73
-145 38 0 c22 0 39 5 39 10 0 6 8 10 18 10 29 0 117 56 171 109 97 95 138 235
90 306 -35 51 -108 72 -137 40z"/>
<path d="M3028 3523 c7 -3 16 -2 19 1 4 3 -2 6 -13 5 -11 0 -14 -3 -6 -6z"/>
</g>
</svg>
