<?xml version="1.0" standalone="no"?>
<!DOCTYPE svg PUBLIC "-//W3C//DTD SVG 20010904//EN"
 "http://www.w3.org/TR/2001/REC-SVG-20010904/DTD/svg10.dtd">
<svg version="1.0" xmlns="http://www.w3.org/2000/svg"
 width="512.000000pt" height="512.000000pt" viewBox="0 0 512.000000 512.000000"
 preserveAspectRatio="xMidYMid meet">

<g transform="translate(0.000000,512.000000) scale(0.100000,-0.100000)"
fill="#000000" stroke="none">
<path d="M2380 4785 c-252 -43 -500 -180 -660 -365 -391 -455 -369 -1111 50
-1530 418 -418 1076 -440 1527 -52 140 120 268 315 326 493 169 518 -61 1086
-541 1337 -220 115 -471 156 -702 117z"/>
<path d="M2325 2229 c-256 -28 -508 -102 -732 -214 -294 -148 -516 -344 -687
-608 -161 -246 -252 -543 -217 -706 37 -172 181 -320 356 -366 52 -13 240 -15
1512 -15 1019 0 1468 3 1505 11 142 30 267 128 334 265 39 77 39 79 39 198 0
116 -2 126 -42 242 -218 634 -740 1052 -1468 1175 -140 24 -459 33 -600 18z"/>
</g>
</svg>
